simulate cocontraction
version=1
nRows=4
nColumns=195
inDegrees=yes
endheader
time	/jointset/ground_platform/platform_rx/value	/jointset/ground_platform/platform_rx/speed	/jointset/ground_platform/platform_ry/value	/jointset/ground_platform/platform_ry/speed	/jointset/ground_platform/platform_rz/value	/jointset/ground_platform/platform_rz/speed	/jointset/ground_platform/platform_ty/value	/jointset/ground_platform/platform_ty/speed	/jointset/ground_pelvis/pelvis_tilt/value	/jointset/ground_pelvis/pelvis_tilt/speed	/jointset/ground_pelvis/pelvis_list/value	/jointset/ground_pelvis/pelvis_list/speed	/jointset/ground_pelvis/pelvis_rotation/value	/jointset/ground_pelvis/pelvis_rotation/speed	/jointset/ground_pelvis/pelvis_tx/value	/jointset/ground_pelvis/pelvis_tx/speed	/jointset/ground_pelvis/pelvis_ty/value	/jointset/ground_pelvis/pelvis_ty/speed	/jointset/ground_pelvis/pelvis_tz/value	/jointset/ground_pelvis/pelvis_tz/speed	/jointset/hip_r/hip_flexion_r/value	/jointset/hip_r/hip_flexion_r/speed	/jointset/hip_r/hip_adduction_r/value	/jointset/hip_r/hip_adduction_r/speed	/jointset/hip_r/hip_rotation_r/value	/jointset/hip_r/hip_rotation_r/speed	/jointset/knee_r/knee_angle_r/value	/jointset/knee_r/knee_angle_r/speed	/jointset/ankle_r/ankle_angle_r/value	/jointset/ankle_r/ankle_angle_r/speed	/jointset/subtalar_r/subtalar_angle_r/value	/jointset/subtalar_r/subtalar_angle_r/speed	/jointset/mtp_r/mtp_angle_r/value	/jointset/mtp_r/mtp_angle_r/speed	/jointset/hip_l/hip_flexion_l/value	/jointset/hip_l/hip_flexion_l/speed	/jointset/hip_l/hip_adduction_l/value	/jointset/hip_l/hip_adduction_l/speed	/jointset/hip_l/hip_rotation_l/value	/jointset/hip_l/hip_rotation_l/speed	/jointset/knee_l/knee_angle_l/value	/jointset/knee_l/knee_angle_l/speed	/jointset/ankle_l/ankle_angle_l/value	/jointset/ankle_l/ankle_angle_l/speed	/jointset/subtalar_l/subtalar_angle_l/value	/jointset/subtalar_l/subtalar_angle_l/speed	/jointset/mtp_l/mtp_angle_l/value	/jointset/mtp_l/mtp_angle_l/speed	/jointset/back/lumbar_extension/value	/jointset/back/lumbar_extension/speed	/jointset/back/lumbar_bending/value	/jointset/back/lumbar_bending/speed	/jointset/back/lumbar_rotation/value	/jointset/back/lumbar_rotation/speed	/forceset/glut_med1_r/activation	/forceset/glut_med1_r/fiber_length	/forceset/glut_med2_r/activation	/forceset/glut_med2_r/fiber_length	/forceset/glut_med3_r/activation	/forceset/glut_med3_r/fiber_length	/forceset/bifemlh_r/activation	/forceset/bifemlh_r/fiber_length	/forceset/bifemsh_r/activation	/forceset/bifemsh_r/fiber_length	/forceset/sar_r/activation	/forceset/sar_r/fiber_length	/forceset/add_mag2_r/activation	/forceset/add_mag2_r/fiber_length	/forceset/tfl_r/activation	/forceset/tfl_r/fiber_length	/forceset/pect_r/activation	/forceset/pect_r/fiber_length	/forceset/grac_r/activation	/forceset/grac_r/fiber_length	/forceset/glut_max1_r/activation	/forceset/glut_max1_r/fiber_length	/forceset/glut_max2_r/activation	/forceset/glut_max2_r/fiber_length	/forceset/glut_max3_r/activation	/forceset/glut_max3_r/fiber_length	/forceset/iliacus_r/activation	/forceset/iliacus_r/fiber_length	/forceset/psoas_r/activation	/forceset/psoas_r/fiber_length	/forceset/quad_fem_r/activation	/forceset/quad_fem_r/fiber_length	/forceset/gem_r/activation	/forceset/gem_r/fiber_length	/forceset/peri_r/activation	/forceset/peri_r/fiber_length	/forceset/rect_fem_r/activation	/forceset/rect_fem_r/fiber_length	/forceset/vas_int_r/activation	/forceset/vas_int_r/fiber_length	/forceset/med_gas_r/activation	/forceset/med_gas_r/fiber_length	/forceset/lat_gas_r/activation	/forceset/lat_gas_r/fiber_length	/forceset/soleus_r/activation	/forceset/soleus_r/fiber_length	/forceset/tib_post_r/activation	/forceset/tib_post_r/fiber_length	/forceset/flex_dig_r/activation	/forceset/flex_dig_r/fiber_length	/forceset/flex_hal_r/activation	/forceset/flex_hal_r/fiber_length	/forceset/tib_ant_r/activation	/forceset/tib_ant_r/fiber_length	/forceset/per_brev_r/activation	/forceset/per_brev_r/fiber_length	/forceset/per_long_r/activation	/forceset/per_long_r/fiber_length	/forceset/per_tert_r/activation	/forceset/per_tert_r/fiber_length	/forceset/ext_dig_r/activation	/forceset/ext_dig_r/fiber_length	/forceset/ext_hal_r/activation	/forceset/ext_hal_r/fiber_length	/forceset/glut_med1_l/activation	/forceset/glut_med1_l/fiber_length	/forceset/glut_med2_l/activation	/forceset/glut_med2_l/fiber_length	/forceset/glut_med3_l/activation	/forceset/glut_med3_l/fiber_length	/forceset/bifemlh_l/activation	/forceset/bifemlh_l/fiber_length	/forceset/bifemsh_l/activation	/forceset/bifemsh_l/fiber_length	/forceset/sar_l/activation	/forceset/sar_l/fiber_length	/forceset/add_mag2_l/activation	/forceset/add_mag2_l/fiber_length	/forceset/tfl_l/activation	/forceset/tfl_l/fiber_length	/forceset/pect_l/activation	/forceset/pect_l/fiber_length	/forceset/grac_l/activation	/forceset/grac_l/fiber_length	/forceset/glut_max1_l/activation	/forceset/glut_max1_l/fiber_length	/forceset/glut_max2_l/activation	/forceset/glut_max2_l/fiber_length	/forceset/glut_max3_l/activation	/forceset/glut_max3_l/fiber_length	/forceset/iliacus_l/activation	/forceset/iliacus_l/fiber_length	/forceset/psoas_l/activation	/forceset/psoas_l/fiber_length	/forceset/quad_fem_l/activation	/forceset/quad_fem_l/fiber_length	/forceset/gem_l/activation	/forceset/gem_l/fiber_length	/forceset/peri_l/activation	/forceset/peri_l/fiber_length	/forceset/rect_fem_l/activation	/forceset/rect_fem_l/fiber_length	/forceset/vas_int_l/activation	/forceset/vas_int_l/fiber_length	/forceset/med_gas_l/activation	/forceset/med_gas_l/fiber_length	/forceset/lat_gas_l/activation	/forceset/lat_gas_l/fiber_length	/forceset/soleus_l/activation	/forceset/soleus_l/fiber_length	/forceset/tib_post_l/activation	/forceset/tib_post_l/fiber_length	/forceset/flex_dig_l/activation	/forceset/flex_dig_l/fiber_length	/forceset/flex_hal_l/activation	/forceset/flex_hal_l/fiber_length	/forceset/tib_ant_l/activation	/forceset/tib_ant_l/fiber_length	/forceset/per_brev_l/activation	/forceset/per_brev_l/fiber_length	/forceset/per_long_l/activation	/forceset/per_long_l/fiber_length	/forceset/per_tert_l/activation	/forceset/per_tert_l/fiber_length	/forceset/ext_dig_l/activation	/forceset/ext_dig_l/fiber_length	/forceset/ext_hal_l/activation	/forceset/ext_hal_l/fiber_length	/forceset/ercspn_r/activation	/forceset/ercspn_r/fiber_length	/forceset/ercspn_l/activation	/forceset/ercspn_l/fiber_length	/forceset/intobl_r/activation	/forceset/intobl_r/fiber_length	/forceset/intobl_l/activation	/forceset/intobl_l/fiber_length	/forceset/extobl_r/activation	/forceset/extobl_r/fiber_length	/forceset/extobl_l/activation	/forceset/extobl_l/fiber_length
      0.00000000	     20.00000000	      0.00000000	      0.00000000	      0.00000000	      0.00000000	      0.00000000	      0.25000000	      0.00000000	    -11.99999999	      0.00000000	      0.00000000	      0.00000000	      0.00000000	      0.00000000	      0.05000270	      0.00000000	      1.67000000	      0.00000000	      0.00000000	      0.00000000	     19.99999998	      0.00000000	     -0.99999986	      0.00000000	      4.99999985	      0.00000000	    -19.99999998	      0.00000000	     11.49999977	      0.00000000	     -0.03000064	      0.00000000	      0.00000000	      0.00000000	    -19.99999998	      0.00000000	     10.00000028	      0.00000000	      4.99999985	      0.00000000	   -119.99999986	      0.00000000	     11.49999977	      0.00000000	     -0.03000064	      0.00000000	      0.00000000	      0.00000000	      0.00000000	      0.00000000	      0.00000000	      0.00000000	      0.00000000	      0.00000000	      0.05000000	      0.04357575	      0.05000000	      0.08362391	      0.05000000	      0.06843766	      0.05000000	      0.10252054	      0.05000000	      0.16214763	      0.05000000	      0.44828157	      0.05000000	      0.08145199	      0.05000000	      0.09433646	      0.05000000	      0.06307802	      0.05000000	      0.30964682	      0.05000000	      0.09016565	      0.05000000	      0.10100256	      0.05000000	      0.11743733	      0.05000000	      0.09220087	      0.05000000	      0.08633896	      0.05000000	      0.05137182	      0.05000000	      0.02799630	      0.05000000	      0.02540625	      0.05000000	      0.09879678	      0.05000000	      0.08124441	      0.05000000	      0.09238399	      0.05000000	      0.06542811	      0.05000000	      0.08505025	      0.05000000	      0.03476839	      0.05000000	      0.03194333	      0.05000000	      0.04040403	      0.05000000	      0.07087162	      0.05000000	      0.04936739	      0.05000000	      0.04999319	      0.05000000	      0.07406410	      0.05000000	      0.08688528	      0.05000000	      0.09462792	      0.05000000	      0.04601551	      0.05000000	      0.07892451	      0.05000000	      0.06037764	      0.05000000	      0.02113236	      0.05000000	      0.12200186	      0.05000000	      0.45496511	      0.05000000	      0.05773534	      0.05000000	      0.13368846	      0.05000000	      0.07288697	      0.05000000	      0.24232005	      0.05000000	      0.06582572	      0.05000000	      0.06497935	      0.05000000	      0.05711646	      0.05000000	      0.11869224	      0.05000000	      0.11219124	      0.05000000	      0.04371493	      0.05000000	      0.02457077	      0.05000000	      0.02266386	      0.05000000	      0.18243637	      0.05000000	      0.13930721	      0.05000000	      0.06594925	      0.05000000	      0.03998752	      0.05000000	      0.08505025	      0.05000000	      0.03476839	      0.05000000	      0.03194333	      0.05000000	      0.04040403	      0.05000000	      0.07087162	      0.05000000	      0.04936739	      0.05000000	      0.04999319	      0.05000000	      0.07406410	      0.05000000	      0.08688528	      0.05000000	      0.09462792	      0.05000000	      0.11943514	      0.05000000	      0.11943514	      0.05000000	      0.09818663	      0.05000000	      0.09818663	      0.05000000	      0.13256617	      0.05000000	      0.13256617
      0.00100000	     20.00000000	      0.00000000	      0.00000000	      0.00000000	     -0.00000000	     -0.00000000	      0.25000000	      0.00000000	    -11.99968201	      0.63498823	     -0.00021860	     -0.43386605	      0.00018422	      0.36944798	      0.05000284	      0.00027261	      1.66999655	     -0.00691043	     -0.00000130	     -0.00258938	     19.99872866	     -2.53909882	     -1.00085418	     -1.70561675	      4.99671295	     -6.55356260	    -19.99691644	      6.14897714	     11.47653217	    -46.59256492	     -0.01117330	     37.57416391	     -0.00000000	     -0.00000000	    -19.99999998	     -0.00000000	     10.00000028	     -0.00000000	      4.99999985	     -0.00000000	   -119.99999986	     -0.00000000	     11.49999977	      0.00000000	     -0.03000064	     -0.00000000	      0.00000000	      0.00000000	     -0.00039604	     -0.79047598	      0.00037859	      0.75212819	     -0.00015484	     -0.31089123	      0.04928705	      0.04357589	      0.04928705	      0.08362409	      0.04928705	      0.06843776	      0.04928705	      0.10252080	      0.04928705	      0.16214810	      0.04928705	      0.44828280	      0.04928705	      0.08145228	      0.04928705	      0.09433669	      0.04928705	      0.06307833	      0.04928705	      0.30964773	      0.04928705	      0.09016594	      0.04928705	      0.10100284	      0.04928705	      0.11743762	      0.04928705	      0.09220114	      0.04928705	      0.08633921	      0.04928705	      0.05137180	      0.04928705	      0.02799631	      0.04928705	      0.02540631	      0.04928705	      0.09879704	      0.04928705	      0.08124461	      0.04928705	      0.09238410	      0.04928705	      0.06542819	      0.04928705	      0.08505024	      0.07327897	      0.03476354	      0.07327897	      0.03193802	      0.07327897	      0.04039732	      0.07327897	      0.07085709	      0.12995913	      0.04934248	      0.12995913	      0.04996842	      0.12995913	      0.07402669	      0.12995913	      0.08683451	      0.07327897	      0.09461131	      0.04928705	      0.04601564	      0.04928705	      0.07892471	      0.04928705	      0.06037779	      0.04928705	      0.02113262	      0.04928705	      0.12200226	      0.04928705	      0.45496623	      0.04928705	      0.05773563	      0.04928705	      0.13368869	      0.04928705	      0.07288719	      0.04928705	      0.24232085	      0.04928705	      0.06582605	      0.04928705	      0.06497969	      0.04928705	      0.05711680	      0.04928705	      0.11869247	      0.04928705	      0.11219147	      0.04928705	      0.04371505	      0.04928705	      0.02457083	      0.04928705	      0.02266392	      0.04928705	      0.18243662	      0.04928705	      0.13930745	      0.04928705	      0.06594947	      0.04928705	      0.03998767	      0.04928705	      0.08505044	      0.04928705	      0.03476847	      0.04928705	      0.03194341	      0.04928705	      0.04040414	      0.04928705	      0.07087186	      0.04928705	      0.04936751	      0.04928705	      0.04999331	      0.04928705	      0.07406428	      0.04928705	      0.08688552	      0.04928705	      0.09462818	      0.04928705	      0.11943541	      0.04928705	      0.11943545	      0.04928705	      0.09818685	      0.04928705	      0.09818688	      0.04928705	      0.13256643	      0.04928705	      0.13256645
      0.00200000	     20.00000000	      0.00000000	      0.00000000	      0.00000000	     -0.00000000	     -0.00000000	      0.25000000	      0.00000000	    -11.99873348	      1.25961621	     -0.00085594	     -0.83263858	      0.00074298	      0.75102810	      0.05000325	      0.00056672	      1.66998614	     -0.01393782	     -0.00000516	     -0.00512349	     19.99493556	     -5.03710961	     -1.00340633	     -3.39683831	      4.98695161	    -12.93138990	    -19.98776896	     12.09842452	     11.40805908	    -89.47919588	      0.04505894	     74.87821435	     -0.00000000	     -0.00000000	    -19.99999998	     -0.00000000	     10.00000028	      0.00000000	      4.99999985	     -0.00000000	   -119.99999986	      0.00000000	     11.49999977	      0.00000000	     -0.03000064	     -0.00000000	      0.00000000	      0.00000000	     -0.00157518	     -1.56376066	      0.00148692	      1.45261840	     -0.00062657	     -0.63599020	      0.04858556	      0.04357642	      0.04858556	      0.08362454	      0.04858556	      0.06843778	      0.04858556	      0.10252161	      0.04858556	      0.16214975	      0.04858556	      0.44828639	      0.04858556	      0.08145314	      0.04858556	      0.09433741	      0.04858556	      0.06307952	      0.04858556	      0.30965072	      0.04858556	      0.09016656	      0.04858556	      0.10100342	      0.04858556	      0.11743827	      0.04858556	      0.09220205	      0.04858556	      0.08634005	      0.04858556	      0.05137098	      0.04858556	      0.02799608	      0.04858556	      0.02540644	      0.04858556	      0.09879775	      0.04858556	      0.08124499	      0.04858556	      0.09238393	      0.04858556	      0.06542806	      0.04858556	      0.08504894	      0.09203312	      0.03475051	      0.09203312	      0.03192384	      0.09203312	      0.04037940	      0.09203312	      0.07082189	      0.18933742	      0.04928513	      0.18933742	      0.04990959	      0.18933742	      0.07394916	      0.18933742	      0.08671785	      0.09203312	      0.09457043	      0.04858556	      0.04601602	      0.04858556	      0.07892529	      0.04858556	      0.06037824	      0.04858556	      0.02113340	      0.04858556	      0.12200337	      0.04858556	      0.45496917	      0.04858556	      0.05773646	      0.04858556	      0.13368933	      0.04858556	      0.07288782	      0.04858556	      0.24232308	      0.04858556	      0.06582703	      0.04858556	      0.06498070	      0.04858556	      0.05711779	      0.04858556	      0.11869314	      0.04858556	      0.11219218	      0.04858556	      0.04371541	      0.04858556	      0.02457100	      0.04858556	      0.02266411	      0.04858556	      0.18243726	      0.04858556	      0.13930812	      0.04858556	      0.06595012	      0.04858556	      0.03998814	      0.04858556	      0.08505102	      0.04858556	      0.03476870	      0.04858556	      0.03194366	      0.04858556	      0.04040445	      0.04858556	      0.07087257	      0.04858556	      0.04936788	      0.04858556	      0.04999367	      0.04858556	      0.07406484	      0.04858556	      0.08688627	      0.04858556	      0.09462899	      0.04858556	      0.11943617	      0.04858556	      0.11943647	      0.04858556	      0.09818738	      0.04858556	      0.09818764	      0.04858556	      0.13256713	      0.04858556	      0.13256727
      0.00338464	     20.00000000	     -0.00000000	      0.00000000	     -0.00000000	     -0.00000000	     -0.00000000	      0.25000000	      0.00000000	    -11.99640766	      2.09239567	     -0.00233507	     -1.27986466	      0.00216905	      1.31742840	      0.05000435	      0.00103569	      1.66995991	     -0.02402420	     -0.00001461	     -0.00848762	     19.98563674	     -8.36306704	     -1.00972161	     -5.72096657	      4.96318331	    -21.29260064	    -19.96564590	     19.71070821	     11.24908783	   -137.53846442	      0.18453430	    126.60575617	     -0.00000000	     -0.00000000	    -19.99999998	      0.00000000	     10.00000028	      0.00000000	      4.99999985	      0.00000000	   -119.99999986	     -0.00000000	     11.49999977	     -0.00000000	     -0.03000064	     -0.00000000	      0.00000000	      0.00000000	     -0.00445372	     -2.58189426	      0.00408857	      2.27055208	     -0.00184250	     -1.13035072	      0.04763274	      0.04357800	      0.04763274	      0.08362537	      0.04763274	      0.06843658	      0.04763274	      0.10252367	      0.04763274	      0.16215461	      0.04763274	      0.44829507	      0.04763274	      0.08145529	      0.04763274	      0.09433929	      0.04763274	      0.06308338	      0.04763274	      0.30965899	      0.04763274	      0.09016737	      0.04763274	      0.10100401	      0.04763274	      0.11743917	      0.04763274	      0.09220474	      0.04763274	      0.08634240	      0.04763274	      0.05136653	      0.04763274	      0.02799447	      0.04763274	      0.02540664	      0.04763274	      0.09879931	      0.04763274	      0.08124522	      0.04763274	      0.09238101	      0.04763274	      0.06542597	      0.04763274	      0.08504132	      0.11263262	      0.03472164	      0.11263262	      0.03189283	      0.11263262	      0.04034020	      0.11263262	      0.07075694	      0.25226117	      0.04917938	      0.25226117	      0.04979515	      0.25226117	      0.07383051	      0.25226117	      0.08650332	      0.11263262	      0.09449291	      0.04763274	      0.04601696	      0.04763274	      0.07892665	      0.04763274	      0.06037931	      0.04763274	      0.02113535	      0.04763274	      0.12200591	      0.04763274	      0.45497525	      0.04763274	      0.05773849	      0.04763274	      0.13369084	      0.04763274	      0.07288922	      0.04763274	      0.24232809	      0.04763274	      0.06582936	      0.04763274	      0.06498312	      0.04763274	      0.05712018	      0.04763274	      0.11869472	      0.04763274	      0.11219391	      0.04763274	      0.04371622	      0.04763274	      0.02457142	      0.04763274	      0.02266459	      0.04763274	      0.18243859	      0.04763274	      0.13930963	      0.04763274	      0.06595178	      0.04763274	      0.03998933	      0.04763274	      0.08505246	      0.04763274	      0.03476927	      0.04763274	      0.03194430	      0.04763274	      0.04040526	      0.04763274	      0.07087434	      0.04763274	      0.04936879	      0.04763274	      0.04999459	      0.04763274	      0.07406622	      0.04763274	      0.08688814	      0.04763274	      0.09463101	      0.04763274	      0.11943791	      0.04763274	      0.11943925	      0.04763274	      0.09818834	      0.04763274	      0.09818960	      0.04763274	      0.13256857	      0.04763274	      0.13256921
